<svg width="260.508" height="66.3" viewBox="0 0 260.508 66.3" xmlns="http://www.w3.org/2000/svg"><g id="svgGroup" stroke-linecap="round" fill-rule="evenodd" font-size="9pt" stroke="#000" stroke-width="0.25mm" fill="#000" style="stroke:#000;stroke-width:0.25mm;fill:#000"><path d="M 155.958 18.36 L 157.08 24.378 L 165.648 56.61 L 166.26 56.61 L 176.154 24.786 L 177.684 18.666 L 185.64 18.666 L 186.762 24.378 L 195.33 56.61 L 195.942 56.61 L 205.836 24.786 L 207.366 18.666 L 214.404 18.666 L 199.002 65.382 L 191.352 65.382 L 181.56 29.172 L 180.846 29.172 L 169.524 65.382 L 161.568 65.382 L 148.512 18.87 L 155.958 18.36 Z M 82.314 65.382 L 82.824 33.66 A 16.164 16.164 0 0 0 82.829 33.266 Q 82.829 30.186 81.617 28.145 A 6.938 6.938 0 0 0 80.886 27.132 Q 78.942 24.896 75.237 24.791 A 13.038 13.038 0 0 0 74.868 24.786 A 13.601 13.601 0 0 0 69.479 25.981 Q 65.479 27.702 61.13 31.898 A 47.78 47.78 0 0 0 60.996 32.028 L 60.996 44.88 L 61.404 65.382 L 53.346 65.382 L 53.856 45.594 L 53.448 19.176 L 61.098 18.462 L 61.098 25.296 L 61.71 25.296 Q 68.034 19.686 74.664 18.054 A 26.29 26.29 0 0 1 79.092 18.403 Q 81.472 18.81 83.37 19.694 A 12.241 12.241 0 0 1 86.343 21.624 A 11.33 11.33 0 0 1 89.922 27.938 Q 90.273 29.588 90.273 31.498 A 21.164 21.164 0 0 1 90.27 31.824 L 90.066 45.084 L 90.474 65.382 L 82.314 65.382 Z M 252.348 65.382 L 252.858 33.66 A 16.164 16.164 0 0 0 252.863 33.266 Q 252.863 30.186 251.651 28.145 A 6.938 6.938 0 0 0 250.92 27.132 Q 248.976 24.896 245.271 24.791 A 13.038 13.038 0 0 0 244.902 24.786 A 13.601 13.601 0 0 0 239.513 25.981 Q 235.513 27.702 231.164 31.898 A 47.78 47.78 0 0 0 231.03 32.028 L 231.03 44.88 L 231.438 65.382 L 223.38 65.382 L 223.89 45.594 L 223.482 19.176 L 231.132 18.462 L 231.132 25.296 L 231.744 25.296 Q 238.068 19.686 244.698 18.054 A 26.29 26.29 0 0 1 249.126 18.403 Q 251.506 18.81 253.404 19.694 A 12.241 12.241 0 0 1 256.377 21.624 A 11.33 11.33 0 0 1 259.956 27.938 Q 260.307 29.588 260.307 31.498 A 21.164 21.164 0 0 1 260.304 31.824 L 260.1 45.084 L 260.508 65.382 L 252.348 65.382 Z M 44.37 0 L 17.85 30.702 Q 31.416 48.246 46.206 63.648 L 46.104 64.668 A 40.803 40.803 0 0 1 43.594 65.328 Q 42.245 65.64 40.686 65.924 A 87.282 87.282 0 0 1 38.454 66.3 L 37.434 65.79 Q 21.318 47.532 9.282 31.11 L 9.282 30.498 L 31.11 5.712 L 35.19 0 L 44.37 0 Z M 8.16 0 L 7.752 44.982 L 8.058 65.382 L 0 65.382 L 0.306 45.696 L 0 0 L 8.16 0 Z M 129.676 18.643 A 23.34 23.34 0 0 0 123.42 17.85 Q 113.22 17.85 107.661 24.327 A 19.876 19.876 0 0 0 104.95 28.442 Q 102.102 34.167 102.102 42.636 A 43.112 43.112 0 0 0 102.232 46.044 Q 102.519 49.656 103.436 52.662 A 20.375 20.375 0 0 0 107.355 60.027 A 16.788 16.788 0 0 0 115.99 65.435 A 23.842 23.842 0 0 0 122.196 66.198 Q 132.396 66.198 137.904 59.721 Q 143.412 53.244 143.412 41.412 A 43.112 43.112 0 0 0 143.282 38.004 Q 142.995 34.392 142.078 31.386 A 20.375 20.375 0 0 0 138.159 24.021 A 16.771 16.771 0 0 0 129.676 18.643 Z M 122.91 23.562 A 14.984 14.984 0 0 0 118.854 24.08 A 10.679 10.679 0 0 0 113.118 27.948 Q 109.752 32.334 109.752 40.8 Q 109.752 50.592 113.067 55.488 A 10.61 10.61 0 0 0 120.758 60.258 A 14.642 14.642 0 0 0 122.706 60.384 A 15.322 15.322 0 0 0 126.76 59.879 A 10.693 10.693 0 0 0 132.498 56.1 A 13.621 13.621 0 0 0 134.646 52.006 Q 135.293 50.092 135.596 47.739 A 35.206 35.206 0 0 0 135.864 43.248 A 45.471 45.471 0 0 0 135.572 37.908 Q 134.88 32.074 132.549 28.56 A 10.582 10.582 0 0 0 124.904 23.697 A 14.312 14.312 0 0 0 122.91 23.562 Z" vector-effect="non-scaling-stroke"/></g></svg>